<svg width="71" height="78" viewBox="0 0 71 78" fill="none" xmlns="http://www.w3.org/2000/svg">
<path d="M69.4688 75.5625H67.0312V18.2812C67.0312 17.6109 66.4828 17.0625 65.8125 17.0625H58.5V12.1875C58.5 11.5172 57.9516 10.9688 57.2812 10.9688C56.6109 10.9688 56.0625 11.5172 56.0625 12.1875V17.0625H53.625V6.09375C53.625 5.42344 53.0766 4.875 52.4062 4.875C51.7359 4.875 51.1875 5.42344 51.1875 6.09375V17.0625H48.75C48.0797 17.0625 47.5312 17.6109 47.5312 18.2812C47.5312 18.9516 48.0797 19.5 48.75 19.5H64.5938V23.1562H48.75C48.0797 23.1562 47.5312 23.7047 47.5312 24.375C47.5312 25.0453 48.0797 25.5938 48.75 25.5938H64.5938V28.0312H48.75C48.0797 28.0312 47.5312 28.5797 47.5312 29.25C47.5312 29.9203 48.0797 30.4688 48.75 30.4688H64.5938V32.9062H48.75C48.0797 32.9062 47.5312 33.4547 47.5312 34.125C47.5312 34.7953 48.0797 35.3438 48.75 35.3438H64.5938V37.7812H48.75C48.0797 37.7812 47.5312 38.3297 47.5312 39C47.5312 39.6703 48.0797 40.2188 48.75 40.2188H64.5938V42.6562H48.75C48.0797 42.6562 47.5312 43.2047 47.5312 43.875C47.5312 44.5453 48.0797 45.0938 48.75 45.0938H64.5938V47.5312H48.75C48.0797 47.5312 47.5312 48.0797 47.5312 48.75C47.5312 49.4203 48.0797 49.9688 48.75 49.9688H64.5938V52.4062H48.75C48.0797 52.4062 47.5312 52.9547 47.5312 53.625C47.5312 54.2953 48.0797 54.8438 48.75 54.8438H64.5938V57.2812H48.75C48.0797 57.2812 47.5312 57.8297 47.5312 58.5C47.5312 59.1703 48.0797 59.7188 48.75 59.7188H64.5938V62.1562H48.75C48.0797 62.1562 47.5312 62.7047 47.5312 63.375C47.5312 64.0453 48.0797 64.5938 48.75 64.5938H64.5938V67.0312H48.75C48.0797 67.0312 47.5312 67.5797 47.5312 68.25C47.5312 68.9203 48.0797 69.4688 48.75 69.4688H64.5938V75.5625H45.0938V1.21875C45.0938 0.548438 44.5453 0 43.875 0H4.875C4.20469 0 3.65625 0.548438 3.65625 1.21875V75.5625H1.21875C0.548438 75.5625 0 76.1109 0 76.7812C0 77.4516 0.548438 78 1.21875 78H69.4688C70.1391 78 70.6875 77.4516 70.6875 76.7812C70.6875 76.1109 70.1391 75.5625 69.4688 75.5625ZM6.09375 7.3125H42.6562V64.5938H6.09375V7.3125ZM42.6562 2.4375V4.875H6.09375V2.4375H42.6562ZM6.09375 67.0312H42.6562V75.5625H40.2188V70.6875C40.2188 70.0172 39.6703 69.4688 39 69.4688C38.3297 69.4688 37.7812 70.0172 37.7812 70.6875V75.5625H35.3438V70.6875C35.3438 70.0172 34.7953 69.4688 34.125 69.4688C33.4547 69.4688 32.9062 70.0172 32.9062 70.6875V75.5625H30.4688V70.6875C30.4688 70.0172 29.9203 69.4688 29.25 69.4688C28.5797 69.4688 28.0312 70.0172 28.0312 70.6875V75.5625H25.5938V70.6875C25.5938 70.0172 25.0453 69.4688 24.375 69.4688C23.7047 69.4688 23.1562 70.0172 23.1562 70.6875V75.5625H20.7188V70.6875C20.7188 70.0172 20.1703 69.4688 19.5 69.4688C18.8297 69.4688 18.2812 70.0172 18.2812 70.6875V75.5625H15.8438V70.6875C15.8438 70.0172 15.2953 69.4688 14.625 69.4688C13.9547 69.4688 13.4062 70.0172 13.4062 70.6875V75.5625H10.9688V70.6875C10.9688 70.0172 10.4203 69.4688 9.75 69.4688C9.07969 69.4688 8.53125 70.0172 8.53125 70.6875V75.5625H6.09375V67.0312Z" fill="#11C849"/>
<path d="M19.5 9.75C18.8297 9.75 18.2812 10.2984 18.2812 10.9688V60.9375C18.2812 61.6078 18.8297 62.1562 19.5 62.1562C20.1703 62.1562 20.7188 61.6078 20.7188 60.9375V10.9688C20.7188 10.2984 20.1703 9.75 19.5 9.75Z" fill="#11C849"/>
<path d="M24.375 9.75C23.7047 9.75 23.1562 10.2984 23.1562 10.9688V60.9375C23.1562 61.6078 23.7047 62.1562 24.375 62.1562C25.0453 62.1562 25.5938 61.6078 25.5938 60.9375V10.9688C25.5938 10.2984 25.0453 9.75 24.375 9.75Z" fill="#11C849"/>
<path d="M14.625 9.75C13.9547 9.75 13.4062 10.2984 13.4062 10.9688V60.9375C13.4062 61.6078 13.9547 62.1562 14.625 62.1562C15.2953 62.1562 15.8438 61.6078 15.8438 60.9375V10.9688C15.8438 10.2984 15.2953 9.75 14.625 9.75Z" fill="#11C849"/>
<path d="M9.75 9.75C9.07969 9.75 8.53125 10.2984 8.53125 10.9688V60.9375C8.53125 61.6078 9.07969 62.1562 9.75 62.1562C10.4203 62.1562 10.9688 61.6078 10.9688 60.9375V10.9688C10.9688 10.2984 10.4203 9.75 9.75 9.75Z" fill="#11C849"/>
<path d="M39 9.75C38.3297 9.75 37.7812 10.2984 37.7812 10.9688V60.9375C37.7812 61.6078 38.3297 62.1562 39 62.1562C39.6703 62.1562 40.2188 61.6078 40.2188 60.9375V10.9688C40.2188 10.2984 39.6703 9.75 39 9.75Z" fill="#11C849"/>
<path d="M34.125 9.75C33.4547 9.75 32.9062 10.2984 32.9062 10.9688V60.9375C32.9062 61.6078 33.4547 62.1562 34.125 62.1562C34.7953 62.1562 35.3438 61.6078 35.3438 60.9375V10.9688C35.3438 10.2984 34.7953 9.75 34.125 9.75Z" fill="#11C849"/>
<path d="M29.25 9.75C28.5797 9.75 28.0312 10.2984 28.0312 10.9688V60.9375C28.0312 61.6078 28.5797 62.1562 29.25 62.1562C29.9203 62.1562 30.4688 61.6078 30.4688 60.9375V10.9688C30.4688 10.2984 29.9203 9.75 29.25 9.75Z" fill="#11C849"/>
</svg>
