<svg width="70" height="78" viewBox="0 0 70 78" fill="none" xmlns="http://www.w3.org/2000/svg">
<path d="M34.5202 46.2653C38.5299 46.2653 41.776 43.0193 41.776 39.0095C41.776 34.9997 38.5299 31.7537 34.5202 31.7537C30.5104 31.7537 27.2643 34.9997 27.2643 39.0095C27.2643 43.0002 30.5295 46.2653 34.5202 46.2653ZM34.5202 34.045C37.2506 34.045 39.4847 36.279 39.4847 39.0095C39.4847 41.74 37.2506 43.974 34.5202 43.974C31.7897 43.974 29.5557 41.74 29.5557 39.0095C29.5557 36.2599 31.7897 34.045 34.5202 34.045Z" fill="#11C849"/>
<path d="M10.0031 30.4553C10.0031 27.8012 7.84549 25.6436 5.19139 25.6436C2.53729 25.6436 0.379639 27.8012 0.379639 30.4553C0.379639 33.1094 2.53729 35.2671 5.19139 35.2671C7.84549 35.2671 10.0031 33.1094 10.0031 30.4553ZM2.67095 30.4553C2.67095 29.0614 3.79751 27.9349 5.19139 27.9349C6.58527 27.9349 7.71183 29.0614 7.71183 30.4553C7.71183 31.8492 6.58527 32.9757 5.19139 32.9757C3.79751 32.9757 2.67095 31.8301 2.67095 30.4553Z" fill="#11C849"/>
<path d="M55.2947 23.0468C57.9488 23.0468 60.1064 20.8892 60.1064 18.2351C60.1064 15.581 57.9488 13.4233 55.2947 13.4233C52.6406 13.4233 50.4829 15.581 50.4829 18.2351C50.4829 20.8892 52.6406 23.0468 55.2947 23.0468ZM55.2947 15.7146C56.6886 15.7146 57.8151 16.8412 57.8151 18.2351C57.8151 19.629 56.6886 20.7555 55.2947 20.7555C53.9008 20.7555 52.7743 19.629 52.7743 18.2351C52.7743 16.8412 53.9008 15.7146 55.2947 15.7146Z" fill="#11C849"/>
<path d="M31.9997 69.5603C31.9997 66.9062 29.842 64.7485 27.1879 64.7485C24.5338 64.7485 22.3762 66.9062 22.3762 69.5603C22.3762 72.2144 24.5338 74.372 27.1879 74.372C29.842 74.372 31.9997 72.2144 31.9997 69.5603ZM27.1879 72.0807C25.7941 72.0807 24.6675 70.9542 24.6675 69.5603C24.6675 68.1664 25.7941 67.0398 27.1879 67.0398C28.5818 67.0398 29.7084 68.1664 29.7084 69.5603C29.7084 70.9351 28.5818 72.0807 27.1879 72.0807Z" fill="#11C849"/>
<path d="M44.7356 59.8797C44.1245 59.746 43.5135 60.1279 43.3608 60.7389C41.2222 69.9805 37.8425 75.7279 34.5201 75.7279C33.7373 75.7279 32.9353 75.4033 32.1524 74.7541C31.656 74.3531 30.9304 74.4295 30.5485 74.9259C30.1476 75.4224 30.2239 76.148 30.7204 76.5299C31.9233 77.5037 33.2217 78.0001 34.5201 78.0001C36.9451 78.0001 39.1982 76.358 41.184 73.112C42.9407 70.267 44.4491 66.1426 45.5948 61.2163C45.7285 60.6434 45.3466 60.0324 44.7356 59.8797Z" fill="#11C849"/>
<path d="M68.1833 51.8982C67.2095 49.5687 65.4337 46.9528 62.8942 44.1459C61.3666 42.4465 59.5909 40.728 57.6242 39.0095C60.8511 36.1836 63.5052 33.3958 65.4719 30.7417C68.9089 26.0827 69.9018 22.2066 68.336 19.4952C67.3622 17.7958 65.491 16.7457 62.8178 16.3447C62.1877 16.2492 61.6149 16.6884 61.5194 17.3185C61.4239 17.9486 61.8631 18.5214 62.4932 18.6169C64.4599 18.9033 65.7583 19.5907 66.3693 20.66C67.9924 23.4668 64.7654 29.8443 55.8866 37.5393C53.3853 35.4771 50.6357 33.434 47.6761 31.4673C47.4469 27.9158 47.0651 24.517 46.5113 21.3283C47.2751 21.061 48.0198 20.8127 48.7454 20.5836C49.3564 20.3927 49.681 19.7625 49.5091 19.1515C49.3182 18.5405 48.6881 18.2159 48.0771 18.3878C47.4279 18.5978 46.7596 18.8078 46.0913 19.037C45.5757 16.4783 44.9838 14.0725 44.2773 11.8957C43.1125 8.2869 41.7569 5.44186 40.2102 3.43696C38.4726 1.16475 36.5632 0 34.5392 0C32.1715 0 29.9757 1.56573 28.0281 4.659C26.3096 7.37038 24.8012 11.3038 23.6555 16.0201C23.5028 16.6311 23.8846 17.2612 24.4957 17.3949C25.1067 17.5476 25.7368 17.1657 25.8704 16.5547C28.009 7.75226 31.3314 2.27222 34.5392 2.27222C37.1933 2.27222 40.0002 6.12925 42.0815 12.5831C42.7879 14.7789 43.399 17.2039 43.8954 19.8007C40.8594 20.9273 37.7089 22.3021 34.5201 23.8678C27.9135 20.6027 21.4597 18.2159 15.8842 17.0321C12.1799 16.2301 9.02932 16.001 6.52797 16.3256C3.68293 16.6884 1.73532 17.7577 0.723322 19.5143C-0.0977304 20.9273 -0.212296 22.6649 0.341437 24.6698C0.513286 25.2808 1.1434 25.6245 1.75441 25.4717C2.36543 25.2999 2.70912 24.6698 2.55637 24.0588C2.15539 22.6649 2.21267 21.5192 2.70912 20.66C4.02663 18.3687 8.78109 17.8531 15.4068 19.2661C20.3904 20.3354 26.0805 22.3785 31.9615 25.1662C30.5867 25.8918 29.2119 26.6556 27.8372 27.4384C27.0161 27.9158 26.176 28.4122 25.374 28.9087C24.8394 29.2333 24.6675 29.9398 24.9921 30.4744C25.2021 30.8372 25.584 31.0282 25.9659 31.0282C26.176 31.0282 26.3669 30.9709 26.5578 30.8563C27.3598 30.3789 28.1618 29.8825 28.9828 29.4242C30.835 28.355 32.6871 27.3621 34.5201 26.4264C36.3532 27.3621 38.2053 28.355 40.0575 29.4242C41.9096 30.4935 43.7045 31.601 45.423 32.7275C45.5375 34.7897 45.5948 36.8901 45.5948 39.0286C45.5948 44.0695 45.2702 48.9386 44.6592 53.5403C44.5828 54.1704 45.022 54.7432 45.633 54.8387C45.6903 54.8387 45.7285 54.8578 45.7857 54.8578C46.3586 54.8578 46.8359 54.4377 46.9123 53.8649C47.5424 49.1677 47.867 44.1841 47.867 39.0477C47.867 37.4629 47.8288 35.8972 47.7715 34.3315C50.0056 35.8781 52.1059 37.4438 54.0536 39.0477C52.717 40.1361 51.2658 41.2436 49.7192 42.3892C49.2036 42.752 49.089 43.4776 49.4709 43.9931C49.7001 44.2987 50.0438 44.4705 50.4066 44.4705C50.6357 44.4705 50.8839 44.3941 51.0748 44.2605C52.7551 43.0384 54.3591 41.7973 55.8484 40.5753C57.8533 42.3129 59.6291 44.0504 61.1757 45.7498C65.7201 50.7716 67.6487 55.1442 66.3121 57.4355C64.9946 59.7268 60.2401 60.2424 53.6144 58.8294C48.6308 57.7601 42.9407 55.717 37.0597 52.9293C38.4345 52.2037 39.8092 51.4399 41.184 50.657C41.6423 50.3897 42.1197 50.1224 42.5779 49.836C43.1126 49.5114 43.3035 48.8049 42.9789 48.2703C42.6543 47.7356 41.9478 47.5447 41.4132 47.8693C40.9549 48.1366 40.4966 48.4039 40.0575 48.6712C38.2053 49.7405 36.3532 50.7334 34.5201 51.669C32.6871 50.7334 30.835 49.7405 28.9828 48.6712C27.1307 47.602 25.3358 46.4945 23.6173 45.3679C23.5028 43.3058 23.4455 41.2054 23.4455 39.0668C23.4455 34.0259 23.7701 29.1569 24.3811 24.5552C24.4575 23.9251 24.0183 23.3523 23.4073 23.2568C22.7772 23.1804 22.2043 23.6196 22.1089 24.2306C21.4788 28.9278 21.1542 33.9114 21.1542 39.0477C21.1542 40.6326 21.1924 42.1983 21.2496 43.764C19.0156 42.2174 16.9152 40.6517 14.9676 39.0477C16.3042 37.9594 17.7554 36.8519 19.302 35.7253C19.8176 35.3625 19.9321 34.637 19.5502 34.1214C19.1875 33.6059 18.4619 33.4913 17.9463 33.8732C16.266 35.0952 14.6621 36.3364 13.1728 37.5584C12.3708 36.8519 11.5879 36.1645 10.8433 35.458C10.385 35.0189 9.65943 35.0379 9.22026 35.4962C8.78109 35.9545 8.80019 36.68 9.25845 37.1192C9.94584 37.7684 10.6523 38.4176 11.397 39.0477C8.18917 41.8164 5.53507 44.6233 3.58746 47.2583C0.150495 51.9173 -0.842406 55.7934 0.723322 58.5048C1.73532 60.2615 3.68293 61.3307 6.52797 61.6935C7.25355 61.789 8.01732 61.8272 8.85747 61.8272C10.9006 61.8272 13.2682 61.5408 15.9032 60.9679C18.1373 60.4906 20.5241 59.8223 22.9872 58.9821C23.2163 60.1851 23.4837 61.3498 23.7701 62.4764C23.9037 62.9919 24.362 63.3356 24.8775 63.3356C24.973 63.3356 25.0685 63.3165 25.164 63.2974C25.775 63.1447 26.1569 62.5146 26.0041 61.9036C25.6986 60.7006 25.4313 59.4595 25.1831 58.1802C28.219 57.0536 31.3696 55.6788 34.5583 54.1131C41.1649 57.3782 47.5997 59.7459 53.1943 60.9488C55.8293 61.5217 58.197 61.8081 60.2401 61.8081C61.0611 61.8081 61.844 61.7699 62.5696 61.6744C65.4146 61.3116 67.3622 60.2424 68.3742 58.4857C69.3289 56.7672 69.2908 54.5332 68.1833 51.8982ZM41.2031 27.4193C39.8283 26.6365 38.4536 25.8727 37.0788 25.1471C39.5228 23.9824 41.9478 22.9513 44.2964 22.073C44.6974 24.5552 45.022 27.152 45.232 29.8634C43.9336 29.0424 42.5779 28.2213 41.2031 27.4193ZM15.4068 58.753C8.78109 60.1851 4.02663 59.6504 2.70912 57.3591C1.08611 54.5523 4.31304 48.1748 13.1919 40.4798C15.6932 42.542 18.4619 44.5851 21.4024 46.5518C21.6315 50.0842 22.0134 53.5021 22.5671 56.6908C20.0658 57.5883 17.6599 58.2756 15.4068 58.753ZM24.7439 55.9271C24.3429 53.4448 24.0183 50.8289 23.8083 48.1366C25.1258 48.9576 26.4624 49.7787 27.8372 50.5807C29.2119 51.3826 30.5867 52.1273 31.9615 52.8529C29.5174 54.0176 27.0925 55.0487 24.7439 55.9271Z" fill="#11C849"/>
<path d="M34.5201 38.9332C34.5583 38.9332 34.5965 38.9713 34.5965 39.0095C34.5965 39.6396 35.1121 40.1552 35.7422 40.1552C36.3723 40.1552 36.8878 39.6396 36.8878 39.0095C36.8878 37.7111 35.8185 36.6418 34.5201 36.6418C33.89 36.6418 33.3745 37.1574 33.3745 37.7875C33.3745 38.4176 33.89 38.9332 34.5201 38.9332Z" fill="#11C849"/>
</svg>
