<svg width="78" height="70" viewBox="0 0 78 70" fill="none" xmlns="http://www.w3.org/2000/svg">
<path d="M77.05 16.3526C76.4203 16.251 75.8312 16.6573 75.7296 17.287C74.6733 23.4421 69.3714 27.9111 63.0945 27.9111C56.0253 27.9111 50.2765 22.1623 50.2765 15.0931C50.2765 8.02393 56.0253 2.27514 63.0945 2.27514C66.04 2.27514 68.9245 3.29083 71.1997 5.15969C73.4545 6.98793 75.0187 9.54746 75.6281 12.3711C75.7703 12.9805 76.3594 13.3868 76.9891 13.2446C77.5985 13.1024 78.0048 12.5133 77.8626 11.8835C77.1516 8.5724 75.3031 5.54565 72.642 3.3924C69.9605 1.19851 66.5681 0 63.0945 0C58.8692 0 55.0299 1.74698 52.2876 4.57059C47.0873 1.60479 41.1556 0 35.0006 0C25.6563 0 16.8604 3.63616 10.2584 10.2584C3.63616 16.8604 0 25.6563 0 35.0006C0 43.1667 2.88455 51.1094 8.08487 57.3863C8.49115 57.8739 9.20213 57.9348 9.68966 57.5285C10.1772 57.1222 10.2381 56.4113 9.83185 55.9237C4.95655 50.0734 2.27514 42.6385 2.27514 35.0006C2.27514 26.2657 5.66753 18.0589 11.8632 11.8632C18.0386 5.68785 26.2657 2.29545 35.0006 2.29545C40.6275 2.29545 46.0309 3.6971 50.825 6.3582C49.6062 8.06456 48.7327 10.0553 48.3061 12.1882C44.3855 9.89279 39.8353 8.59271 35.0006 8.59271C21.8373 8.59271 10.8882 18.2621 8.89742 30.8566C6.90667 31.1816 5.38314 32.9083 5.38314 35.0006C5.38314 37.0929 6.90667 38.8196 8.89742 39.1446C10.8882 51.7391 21.8373 61.4084 35.0006 61.4084C40.4244 61.4084 45.6247 59.7833 50.0734 56.6957C51.1906 55.9034 52.247 55.0502 53.222 54.1158C53.7908 54.4002 54.4205 54.5627 55.0909 54.5627C57.4066 54.5627 59.2755 52.6939 59.2755 50.3781C59.2755 49.3015 58.8692 48.3264 58.2192 47.5951C58.7473 46.6404 59.2146 45.645 59.6005 44.609C59.824 44.0199 59.5396 43.3495 58.9505 43.1261C58.3614 42.9026 57.691 43.187 57.4676 43.7761C57.1222 44.6699 56.716 45.5231 56.2691 46.356C55.8831 46.2341 55.4972 46.1731 55.0706 46.1731C53.9127 46.1731 52.8767 46.6404 52.1048 47.392C50.5 46.7419 48.8546 46.1935 47.1685 45.7466C47.6357 43.6136 47.9608 41.3791 48.1436 39.043C49.6062 38.6977 50.7844 37.5601 51.1906 36.1178H59.0927C59.0521 37.032 58.9505 37.9258 58.8083 38.8399C58.7067 39.4696 59.1333 40.0587 59.763 40.14C60.3928 40.2415 60.9819 39.8149 61.0631 39.1852C61.2866 37.7836 61.4084 36.3819 61.4084 34.96C61.4084 33.2739 61.2459 31.6082 60.9412 30.0034C61.6522 30.105 62.3835 30.1659 63.1148 30.1659C64.5571 30.1659 65.9384 29.9628 67.2588 29.5971C67.5432 31.3644 67.7057 33.152 67.7057 34.9803C67.7057 43.7152 64.3133 51.9219 58.1176 58.1176C51.9422 64.293 43.7355 67.7057 34.9803 67.7057C27.0376 67.7057 19.3996 64.8212 13.4274 59.6005C12.9602 59.1942 12.2289 59.2349 11.8226 59.7021C11.4163 60.1693 11.457 60.9006 11.9242 61.3069C18.3027 66.8932 26.4891 69.9809 34.9803 69.9809C44.3246 69.9809 53.1204 66.3447 59.7224 59.7224C66.3244 53.1204 69.9809 44.3246 69.9809 34.9803C69.9809 32.888 69.798 30.816 69.4324 28.8049C73.8201 26.7735 77.111 22.7108 77.9845 17.6526C78.086 17.0432 77.6798 16.4541 77.05 16.3526ZM49.3015 21.2076C48.428 21.5123 47.5342 21.7763 46.6404 22.0201C46.0919 20.0903 45.4215 18.2824 44.6496 16.637C43.6949 14.6462 42.5979 13.0008 41.3994 11.7413C43.7761 12.3914 46.0106 13.4071 48.0217 14.7072C48.0217 14.8493 48.0217 14.9712 48.0217 15.1134C48.0217 17.2667 48.4686 19.3387 49.3015 21.2076ZM11.1726 38.8602C12.3508 38.3727 13.2446 37.3773 13.5899 36.1382H21.6748C21.7357 39.5102 22.1217 42.7604 22.792 45.7669C20.0903 46.4778 17.5104 47.4529 15.0931 48.6311C13.1227 45.7669 11.7617 42.4557 11.1726 38.8602ZM21.6748 33.863H13.5899C13.2446 32.6239 12.3304 31.6285 11.1726 31.141C11.7617 27.5658 13.1227 24.2343 15.0931 21.3701C16.6573 22.142 18.3027 22.8123 19.9887 23.3811C20.0903 24.9047 20.9841 26.2047 22.2842 26.8751C21.9388 29.1096 21.7357 31.4457 21.6748 33.863ZM44.3855 22.5483C41.7244 23.117 38.9618 23.4217 36.1381 23.503V11.01C39.5915 11.8226 42.6182 16.2916 44.3855 22.5483ZM33.8427 11.01V23.503C31.9941 23.4624 30.1456 23.2999 28.358 23.0358C28.3174 21.6341 27.6064 20.4153 26.5298 19.684C28.358 14.9509 30.9581 11.7007 33.8427 11.01ZM27.7892 25.25C29.7799 25.5547 31.791 25.7172 33.8427 25.7781V33.863H23.9702C24.0108 31.5879 24.2343 29.394 24.5593 27.3017C25.9407 27.1798 27.1188 26.3876 27.7892 25.25ZM24.1937 21.2279C25.25 21.2279 26.1032 22.081 26.1032 23.1374C26.1032 24.1937 25.25 25.0468 24.1937 25.0468C23.1374 25.0468 22.2842 24.1937 22.2842 23.1374C22.2842 22.081 23.1374 21.2279 24.1937 21.2279ZM33.8427 36.1382V44.223C30.8363 44.284 27.8705 44.6293 25.0265 45.2387C24.4171 42.4354 24.0312 39.368 23.9499 36.1382H33.8427ZM33.8427 46.5185V59.0114C30.3894 58.1989 27.3626 53.7299 25.5953 47.4732C28.2564 46.9044 31.0191 46.5794 33.8427 46.5185ZM36.1381 58.9911V46.4982C38.9618 46.5591 41.7244 46.8841 44.3855 47.4529C42.6182 53.7095 39.5915 58.1786 36.1381 58.9911ZM36.1381 44.223V36.1382H43.1464C43.5324 37.4789 44.548 38.5352 45.8684 38.9821C45.6856 41.176 45.3809 43.2683 44.9543 45.2387C42.1104 44.6293 39.1446 44.284 36.1381 44.223ZM43.1464 33.863H36.1381V25.7781C39.1446 25.7172 42.1104 25.3719 44.9543 24.7625C45.3809 26.7329 45.7059 28.8252 45.8684 31.0191C44.548 31.4457 43.5324 32.5223 43.1464 33.863ZM28.5814 11.7413C27.3829 13.0211 26.3063 14.6462 25.3516 16.637C25.0062 17.3683 24.6609 18.1402 24.3562 18.9527C24.2952 18.9527 24.2343 18.9527 24.1734 18.9527C22.5889 18.9527 21.2076 19.8465 20.4966 21.1466C19.1152 20.6794 17.7948 20.1309 16.5151 19.5215C19.6231 15.8041 23.8077 13.0414 28.5814 11.7413ZM7.65828 35.0006C7.65828 33.9443 8.51146 33.0911 9.56777 33.0911C10.6241 33.0911 11.4773 33.9443 11.4773 35.0006C11.4773 36.0569 10.6241 36.9101 9.56777 36.9101C8.51146 36.9101 7.65828 36.0569 7.65828 35.0006ZM16.5151 50.5C18.6683 49.464 20.9638 48.6311 23.3608 48.0014C23.9093 49.9312 24.5796 51.7391 25.3516 53.3845C26.3063 55.3753 27.4032 57.0207 28.5814 58.2801C23.8077 56.9597 19.6231 54.1971 16.5151 50.5ZM55.0909 48.4686C56.1472 48.4686 57.0004 49.3218 57.0004 50.3781C57.0004 51.4344 56.1472 52.2876 55.0909 52.2876C54.0346 52.2876 53.1814 51.4344 53.1814 50.3781C53.1814 49.3218 54.0346 48.4686 55.0909 48.4686ZM51.0078 49.4233C50.9469 49.728 50.9062 50.0531 50.9062 50.3781C50.9062 51.1906 51.1297 51.9422 51.536 52.572C50.6828 53.3845 49.7484 54.1361 48.7733 54.8268C46.5185 56.4113 44.0199 57.5691 41.3994 58.2801C42.5979 57.0004 43.6949 55.3549 44.6496 53.3642C45.4418 51.7391 46.1122 49.9312 46.6404 47.9811C48.1436 48.3873 49.6062 48.8749 51.0078 49.4233ZM47.1685 36.9101C46.1122 36.9101 45.259 36.0569 45.259 35.0006C45.259 33.9443 46.1122 33.0911 47.1685 33.0911C48.2248 33.0911 49.078 33.9443 49.078 35.0006C49.078 36.0569 48.2248 36.9101 47.1685 36.9101ZM59.0927 33.863H51.1906C50.7844 32.4207 49.6062 31.2832 48.1436 30.9378C47.9608 28.6221 47.6357 26.3672 47.1685 24.2343C48.2655 23.9499 49.3218 23.6046 50.3781 23.2389C52.247 26.1641 55.0909 28.3783 58.463 29.4752C58.8083 30.8972 59.0317 32.3598 59.0927 33.863Z" fill="#11C849"/>
<path d="M71.5044 9.73006L63.6633 5.34229C63.3179 5.13916 62.8914 5.13916 62.546 5.34229L54.7252 9.73006C54.3596 9.9332 54.1361 10.3192 54.1361 10.7254V19.4807C54.1361 19.8869 54.3596 20.2729 54.7252 20.476L62.546 24.8638C62.7288 24.9654 62.9117 25.006 63.0945 25.006C63.2773 25.006 63.4805 24.9654 63.643 24.8638L71.4638 20.476C71.8294 20.2729 72.0529 19.8869 72.0529 19.4807V10.7254C72.0732 10.3192 71.8497 9.9332 71.5044 9.73006ZM61.9772 21.9183L56.4316 18.8103V12.6756L61.9772 15.7836V21.9183ZM63.1148 13.7928L57.6301 10.7254L63.1148 7.65806L68.5995 10.7254L63.1148 13.7928ZM69.798 18.8103L64.2524 21.9183V15.7836L69.798 12.6756V18.8103Z" fill="#11C849"/>
</svg>
