<svg width="78" height="61" viewBox="0 0 78 61" fill="none" xmlns="http://www.w3.org/2000/svg">
<path d="M70.3219 48.3641H66.3812C62.2781 48.3641 58.9266 51.7156 58.9266 55.8187V58.7438H51.8172V48.6281C51.8172 48.4453 51.9594 48.3031 52.1422 48.3031H53.8688C54.4984 48.3031 55.0062 47.7953 55.0062 47.1656V43.0422C55.0062 42.8594 55.1484 42.7172 55.3312 42.7172H57.9516C58.3984 42.7172 58.825 42.4531 58.9875 42.0266C59.5766 40.3812 61.8922 37.4359 65.4469 37.4359C69.7734 37.4359 71.4797 41.6 71.5609 41.7828C71.7234 42.2297 72.15 42.5141 72.6172 42.5141H76.8219C77.4516 42.5141 77.9594 42.0062 77.9594 41.3766C77.9594 40.7469 77.4516 40.2391 76.8219 40.2391H73.3484C72.5969 38.8172 70.5453 35.75 66.6047 35.2422V33.0688C66.6047 32.4391 66.0969 31.9312 65.4672 31.9312C64.8375 31.9312 64.3297 32.4391 64.3297 33.0688V35.2422C63.1313 35.4047 62.0953 35.7906 61.2016 36.3188V9.40469C61.2016 7.8 59.9016 6.5 58.2969 6.5H47.0031C45.3984 6.5 44.0984 7.8 44.0984 9.40469V41.9453H40.3609L39.5078 11.8219H40.4219C41.0516 11.8219 41.5594 11.3141 41.5594 10.6844C41.5594 10.0547 41.0516 9.54688 40.4219 9.54688H39.7719C39.975 9.07969 40.0766 8.59219 40.0766 8.06406C40.0766 6.19531 39.5688 4.36719 38.6141 2.7625L37.2938 0.548438C37.0906 0.203125 36.725 0 36.3188 0C35.9125 0 35.5469 0.203125 35.3438 0.548438L34.0234 2.7625C33.0687 4.36719 32.5609 6.19531 32.5609 8.06406C32.5609 8.59219 32.6625 9.1 32.8656 9.54688H32.1344C31.5047 9.54688 30.9969 10.0547 30.9969 10.6844C30.9969 11.3141 31.5047 11.8219 32.1344 11.8219H33.0281L32.175 41.9453H28.2344V9.40469C28.2344 7.8 26.9344 6.5 25.3297 6.5H11.3547C9.75 6.5 8.45 7.8 8.45 9.40469V26.9344H6.94688C5.15938 26.9344 3.69688 28.3969 3.69688 30.1844V41.9453H1.1375C0.507812 41.9453 0 42.4531 0 43.0828C0 43.7125 0.507812 44.2203 1.1375 44.2203H4.83437C5.46406 44.2203 5.97187 43.7125 5.97187 43.0828V30.1844C5.97187 29.6563 6.39844 29.2094 6.92656 29.2094H14.1375C14.6656 29.2094 15.0922 29.6359 15.0922 30.1844V53.4016H12.1062C8.9375 53.4016 6.27656 55.6969 5.74844 58.7234H1.1375C0.507812 58.7234 0 59.2313 0 59.8609C0 60.4906 0.507812 60.9984 1.1375 60.9984H76.8625C77.4922 60.9984 78 60.4906 78 59.8609V56.0219C78 51.8172 74.5469 48.3641 70.3219 48.3641ZM44.0984 51.2484H41.2141C41.4172 51.0047 41.6203 50.7609 41.7828 50.4969L44.0984 46.9422V51.2484ZM35.9531 3.94062L36.2984 3.37188L36.6437 3.94062C37.3953 5.17969 37.7812 6.60156 37.7812 8.06406C37.7812 8.87656 37.1109 9.54688 36.2984 9.54688C35.4859 9.54688 34.8156 8.87656 34.8156 8.06406C34.8156 6.60156 35.2219 5.17969 35.9531 3.94062ZM35.2828 11.8422H37.2125L38.0656 41.9656H34.45L35.2828 11.8422ZM43.1234 44.2406L39.8531 49.2578C39.0406 50.5172 37.6594 51.2687 36.1562 51.2687C34.6531 51.2687 33.2719 50.5172 32.4594 49.2578L29.1891 44.2406H43.1234ZM30.55 50.4969C30.7328 50.7609 30.9156 51.025 31.1187 51.2484H28.2344V46.9422L30.55 50.4969ZM14.1578 26.9344H10.7453V9.40469C10.7453 9.05937 11.0297 8.775 11.375 8.775H25.3297C25.675 8.775 25.9594 9.05937 25.9594 9.40469V49.9078C24.9844 49.1562 23.7453 48.6891 22.4047 48.6891H20.9625C19.6219 48.6891 18.4031 49.1359 17.4078 49.8875V30.1437C17.4078 28.3969 15.9453 26.9344 14.1578 26.9344ZM12.1062 55.6969H16.2703C16.9 55.6969 17.4078 55.1891 17.4078 54.5594C17.4078 52.6094 18.9922 51.0047 20.9625 51.0047H22.4047C24.3547 51.0047 25.9594 52.5891 25.9594 54.5594V58.7438H8.08437C8.57187 56.9766 10.1969 55.6969 12.1062 55.6969ZM28.2344 53.5234H44.0984V58.7234H28.2344V53.5234ZM46.3734 9.40469C46.3734 9.05937 46.6578 8.775 47.0031 8.775H58.2969C58.6422 8.775 58.9266 9.05937 58.9266 9.40469V38.1672C58.1344 39.0203 57.6063 39.8531 57.2812 40.4219H55.3516C53.9094 40.4219 52.7313 41.6 52.7313 43.0422V46.0281H52.1422C50.7 46.0281 49.5219 47.2062 49.5219 48.6484V58.7641H46.3531L46.3734 9.40469ZM61.2016 58.7438V55.8187C61.2016 52.975 63.5172 50.6594 66.3609 50.6594H70.3016C73.2672 50.6594 75.7047 53.0766 75.7047 56.0625V58.7641H61.2016V58.7438Z" fill="#11C849"/>
<path d="M14.6449 14.3199H22.0996C22.7293 14.3199 23.2371 13.8121 23.2371 13.1824C23.2371 12.5527 22.7293 12.0449 22.0996 12.0449H14.6449C14.0152 12.0449 13.5074 12.5527 13.5074 13.1824C13.4871 13.8121 13.9949 14.3199 14.6449 14.3199Z" fill="#11C849"/>
<path d="M14.6449 18.9518H22.0996C22.7293 18.9518 23.2371 18.4439 23.2371 17.8143C23.2371 17.1846 22.7293 16.6768 22.0996 16.6768H14.6449C14.0152 16.6768 13.5074 17.1846 13.5074 17.8143C13.4871 18.4236 13.9949 18.9518 14.6449 18.9518Z" fill="#11C849"/>
<path d="M23.2172 22.4246C23.2172 21.7949 22.7094 21.2871 22.0797 21.2871H14.6453C14.0156 21.2871 13.5078 21.7949 13.5078 22.4246C13.5078 23.0543 14.0156 23.5621 14.6453 23.5621H22.1C22.7094 23.5621 23.2172 23.0543 23.2172 22.4246Z" fill="#11C849"/>
<path d="M22.0801 25.8984H21.2879C20.6582 25.8984 20.1504 26.4063 20.1504 27.0359C20.1504 27.6656 20.6582 28.1734 21.2879 28.1734H22.0801C22.7098 28.1734 23.2176 27.6656 23.2176 27.0359C23.2176 26.4063 22.7098 25.8984 22.0801 25.8984Z" fill="#11C849"/>
<path d="M22.0801 30.5098H21.2879C20.6582 30.5098 20.1504 31.0176 20.1504 31.6473C20.1504 32.277 20.6582 32.7848 21.2879 32.7848H22.0801C22.7098 32.7848 23.2176 32.277 23.2176 31.6473C23.2176 31.0176 22.7098 30.5098 22.0801 30.5098Z" fill="#11C849"/>
<path d="M22.0801 35.1201H21.2879C20.6582 35.1201 20.1504 35.6279 20.1504 36.2576C20.1504 36.8873 20.6582 37.3951 21.2879 37.3951H22.0801C22.7098 37.3951 23.2176 36.8873 23.2176 36.2576C23.2176 35.6279 22.7098 35.1201 22.0801 35.1201Z" fill="#11C849"/>
<path d="M52.2439 15.5592H53.0361C53.6658 15.5592 54.1736 15.0514 54.1736 14.4217C54.1736 13.792 53.6658 13.2842 53.0361 13.2842H52.2439C51.6143 13.2842 51.1064 13.792 51.1064 14.4217C51.1064 15.0514 51.6143 15.5592 52.2439 15.5592Z" fill="#11C849"/>
<path d="M52.2439 20.1705H53.0361C53.6658 20.1705 54.1736 19.6627 54.1736 19.033C54.1736 18.4033 53.6658 17.8955 53.0361 17.8955H52.2439C51.6143 17.8955 51.1064 18.4033 51.1064 19.033C51.1064 19.6627 51.6143 20.1705 52.2439 20.1705Z" fill="#11C849"/>
<path d="M52.2439 24.8014H53.0361C53.6658 24.8014 54.1736 24.2936 54.1736 23.6639C54.1736 23.0342 53.6658 22.5264 53.0361 22.5264H52.2439C51.6143 22.5264 51.1064 23.0342 51.1064 23.6639C51.1064 24.2732 51.6143 24.8014 52.2439 24.8014Z" fill="#11C849"/>
<path d="M52.2439 29.4127H53.0361C53.6658 29.4127 54.1736 28.9049 54.1736 28.2752C54.1736 27.6455 53.6658 27.1377 53.0361 27.1377H52.2439C51.6143 27.1377 51.1064 27.6455 51.1064 28.2752C51.1064 28.9049 51.6143 29.4127 52.2439 29.4127Z" fill="#11C849"/>
<path d="M52.2439 34.0641H53.0361C53.6658 34.0641 54.1736 33.5563 54.1736 32.9266C54.1736 32.2969 53.6658 31.7891 53.0361 31.7891H52.2439C51.6143 31.7891 51.1064 32.2969 51.1064 32.9266C51.1064 33.5563 51.6143 34.0641 52.2439 34.0641Z" fill="#11C849"/>
<path d="M10.2777 34.9986H11.0699C11.6996 34.9986 12.2074 34.4908 12.2074 33.8611C12.2074 33.2314 11.6996 32.7236 11.0699 32.7236H10.2777C9.64803 32.7236 9.14022 33.2314 9.14022 33.8611C9.1199 34.4908 9.64803 34.9986 10.2777 34.9986Z" fill="#11C849"/>
<path d="M10.2777 39.609H11.0699C11.6996 39.609 12.2074 39.1012 12.2074 38.4715C12.2074 37.8418 11.6996 37.334 11.0699 37.334H10.2777C9.64803 37.334 9.14022 37.8418 9.14022 38.4715C9.1199 39.1012 9.64803 39.609 10.2777 39.609Z" fill="#11C849"/>
<path d="M10.2777 44.2408H11.0699C11.6996 44.2408 12.2074 43.733 12.2074 43.1033C12.2074 42.4736 11.6996 41.9658 11.0699 41.9658H10.2777C9.64803 41.9658 9.14022 42.4736 9.14022 43.1033C9.1199 43.7127 9.64803 44.2408 10.2777 44.2408Z" fill="#11C849"/>
<path d="M62.0342 44.2205V45.0127C62.0342 45.6424 62.542 46.1502 63.1717 46.1502C63.8014 46.1502 64.3092 45.6424 64.3092 45.0127V44.2205C64.3092 43.5908 63.8014 43.083 63.1717 43.083C62.542 43.083 62.0342 43.5908 62.0342 44.2205Z" fill="#11C849"/>
<path d="M66.6455 44.2205V45.0127C66.6455 45.6424 67.1533 46.1502 67.783 46.1502C68.4127 46.1502 68.9205 45.6424 68.9205 45.0127V44.2205C68.9205 43.5908 68.4127 43.083 67.783 43.083C67.1736 43.083 66.6455 43.5908 66.6455 44.2205Z" fill="#11C849"/>
</svg>
