<svg width="57" height="79" viewBox="0 0 57 79" fill="none" xmlns="http://www.w3.org/2000/svg">
<path d="M55.933 3.7333C48.1536 -2.92888 33.5497 1.25529 28.4108 11.2486C23.0486 1.21467 8.36338 -2.52265 0.78718 4.18015C-0.451823 5.27697 -0.187773 7.28782 1.29497 8.01903C7.46967 11.0658 20.6518 17.5248 20.9159 17.6467C9.39926 18.6826 0.0559647 31.8241 4.15889 41.6549C4.80886 43.1986 6.77908 43.5845 7.95715 42.4064L11.2273 39.1363C13.9694 36.3942 16.6911 33.6725 19.3925 30.971C20.7737 32.4132 22.7236 33.1038 24.6532 32.921C22.9877 58.6556 15.513 75.6158 15.3708 76.1032H4.97135C4.30107 76.1032 3.77297 76.6313 3.77297 77.3016C3.77297 77.9719 4.30107 78.5 4.97135 78.5C5.66194 78.5 46.4069 78.5 47.6662 78.5C48.3364 78.5 48.8645 77.9719 48.8645 77.3016C48.8645 76.6313 48.3364 76.1032 47.6662 76.1032H27.7609C28.6546 73.3206 29.467 70.3348 30.1983 67.2271C30.3608 66.5771 29.9545 65.9272 29.3046 65.785C28.6546 65.6428 28.0046 66.0287 27.8624 66.6787C27.0703 70.0098 26.1969 73.1784 25.2422 76.1032H17.9504C18.2348 75.3111 19.291 72.8534 20.855 67.7146H23.0892C23.7595 67.7146 24.2876 67.1865 24.2876 66.5162C24.2876 65.8459 23.7595 65.3178 23.0892 65.3178H21.5659C22.947 60.4227 24.1251 55.2027 25.0391 49.9014H26.6437C27.314 49.9014 27.8421 49.3733 27.8421 48.703C27.8421 48.0327 27.314 47.5046 26.6437 47.5046H25.4251C26.2375 42.3658 26.8062 37.1864 27.1109 32.1694C27.7609 31.8241 28.3296 31.357 28.8171 30.8289C29.6092 31.7023 30.6451 32.3725 31.8232 32.6975C31.8232 33.5303 31.8029 34.3428 31.7826 35.1755H29.3858C28.7155 35.1755 28.1874 35.7036 28.1874 36.3739C28.1874 37.0442 28.7155 37.5723 29.3858 37.5723H31.7013C31.4576 43.9298 30.8279 50.4092 29.8123 56.726H28.0859C27.4156 56.726 26.8875 57.2542 26.8875 57.9244C26.8875 58.5947 27.4156 59.1228 28.0859 59.1228H29.4061C29.2233 60.0978 29.0405 61.0727 28.8577 62.0274C28.7358 62.6773 29.1624 63.307 29.792 63.4288C30.442 63.5507 31.0717 63.1445 31.1935 62.4945C33.1028 52.7856 34.159 42.5283 34.1996 32.9006C36.2714 32.6975 38.0588 31.4991 39.0744 29.8133C39.0541 29.793 49.9614 37.3286 51.7082 38.5472C53.0487 39.4816 54.9377 38.7707 55.3033 37.1051C56.2986 32.4741 54.4908 27.579 51.3222 23.8417C50.8957 23.3339 50.1442 23.273 49.6364 23.6995C49.1286 24.1261 49.0677 24.8776 49.4942 25.3854C52.744 29.2039 53.6378 33.3475 52.9878 36.4958L48.8849 33.6725L49.9004 32.2507C50.2864 31.7023 50.1645 30.971 49.6364 30.5851C49.088 30.1992 48.3568 30.3211 47.9708 30.8492L46.9146 32.3116L43.746 30.118L46.1428 26.9291C46.549 26.401 46.4272 25.6494 45.8991 25.2432C45.371 24.837 44.6194 24.9588 44.2132 25.4869L41.7555 28.7368L39.9072 27.4572C40.3743 24.4714 38.6885 21.6074 35.9464 20.4903C36.0277 19.9419 36.0277 19.3529 35.9667 18.8248C39.6025 18.8248 43.1773 20.1856 46.1631 22.3183C46.6912 22.7043 47.4427 22.5824 47.8287 22.0543C48.2146 21.5262 48.0927 20.7747 47.5646 20.3684C44.721 18.317 41.3493 16.9155 37.8557 16.5092C37.876 16.5092 37.9573 16.4686 37.937 16.4686C38.3432 16.2655 41.8164 14.4984 43.8476 13.4422C49.9004 10.3549 41.5524 14.6 55.4049 7.53155C56.0954 7.18626 56.5626 6.51598 56.6642 5.74414C56.8267 5.01292 56.522 4.24109 55.933 3.7333ZM16.9348 13.0157L18.7222 10.3142C19.0879 9.76582 18.9457 9.01429 18.377 8.64869C17.8285 8.28308 17.077 8.42526 16.7114 8.99398L14.7615 11.9595L9.13521 9.1971L10.5164 6.47535C10.8211 5.88632 10.5773 5.15511 9.9883 4.87074C9.39926 4.56607 8.66805 4.80981 8.38369 5.39884L6.98219 8.1409L2.43241 5.90663C9.31802 -0.0446428 23.2314 4.36296 26.9484 13.7266C25.6891 14.2953 24.6532 15.2702 23.9829 16.4889L16.9348 13.0157ZM21.0987 29.2649C20.4487 28.5743 20.0831 27.6806 20.0222 26.8681C19.9613 26.2182 19.3722 25.7307 18.7222 25.7916C18.052 25.8525 17.5848 26.4416 17.6457 27.0915C17.7067 27.7212 17.8489 28.3305 18.0723 28.8993L16.8536 30.118L13.2178 26.6244C12.7507 26.1572 11.9788 26.1775 11.532 26.665C11.0648 27.1322 11.0851 27.904 11.5726 28.3509L15.1677 31.8241L11.3085 35.663L10.3336 34.6068C9.88674 34.1193 9.13521 34.0787 8.64774 34.5256C8.16026 34.9724 8.11964 35.7239 8.56649 36.2114L9.60238 37.3489L6.33222 40.619C2.63553 31.5195 12.8522 19.1904 23.1908 20.0231C23.1908 20.0434 23.1908 20.0841 23.1908 20.1044C21.8705 20.2872 20.6518 20.8559 19.6566 21.7699C19.1691 22.2168 19.1488 22.9886 19.5956 23.4761C20.0425 23.9636 20.8143 23.9839 21.2815 23.537C21.9924 22.8871 22.8861 22.5011 23.8408 22.4605C24.6329 24.0448 26.1156 25.3448 28.0452 25.8525C28.7155 29.7727 23.8204 32.1491 21.0987 29.2649ZM27.5578 16.103H27.5984V16.0827C30.3404 14.4984 33.9762 16.5702 33.6309 20.0434C33.4075 22.0543 31.7013 23.6386 29.6092 23.6386C25.486 23.6386 24.0642 18.1748 27.5578 16.103ZM37.1245 28.4524C35.6011 31.1945 31.7419 31.2148 30.1373 28.6149C30.442 27.7415 30.5436 26.8072 30.4826 25.9744C32.4935 25.7104 34.2403 24.4917 35.2152 22.7855C37.3885 23.7401 38.2822 26.3603 37.1245 28.4524ZM49.413 7.97841L48.4583 5.94725C48.174 5.35822 47.4631 5.09417 46.8537 5.37853C46.2444 5.66289 46.0006 6.3738 46.285 6.98314L47.2803 9.07523L42.8117 11.3501L41.0243 7.87685C40.7196 7.28781 39.9884 7.06439 39.3994 7.36906C38.8103 7.67373 38.5869 8.40495 38.8916 8.99398L40.679 12.4469L34.6262 15.5343C33.5497 14.1937 31.9451 13.3 30.1373 13.1578C34.0981 3.97704 47.524 -0.166512 54.2877 5.48009L49.413 7.97841Z" fill="#11C849"/>
</svg>
