<svg width="78" height="71" viewBox="0 0 78 71" fill="none" xmlns="http://www.w3.org/2000/svg">
<path d="M77.05 16.8526C76.4203 16.751 75.8312 17.1573 75.7296 17.787C74.6733 23.9421 69.3714 28.4111 63.0945 28.4111C56.0253 28.4111 50.2765 22.6623 50.2765 15.5931C50.2765 8.52393 56.0253 2.77514 63.0945 2.77514C66.04 2.77514 68.9245 3.79083 71.1997 5.65969C73.4545 7.48793 75.0187 10.0475 75.6281 12.8711C75.7703 13.4805 76.3594 13.8868 76.9891 13.7446C77.5985 13.6024 78.0048 13.0133 77.8626 12.3835C77.1516 9.0724 75.3031 6.04565 72.642 3.8924C69.9605 1.69851 66.5681 0.5 63.0945 0.5C58.8692 0.5 55.0299 2.24698 52.2876 5.07059C47.0873 2.10479 41.1556 0.5 35.0006 0.5C25.6563 0.5 16.8604 4.13616 10.2584 10.7584C3.63616 17.3604 0 26.1563 0 35.5006C0 43.6667 2.88455 51.6094 8.08487 57.8863C8.49115 58.3739 9.20213 58.4348 9.68966 58.0285C10.1772 57.6222 10.2381 56.9113 9.83185 56.4237C4.95655 50.5734 2.27514 43.1385 2.27514 35.5006C2.27514 26.7657 5.66753 18.5589 11.8632 12.3632C18.0386 6.18785 26.2657 2.79545 35.0006 2.79545C40.6275 2.79545 46.0309 4.1971 50.825 6.8582C49.6062 8.56456 48.7327 10.5553 48.3061 12.6882C44.3855 10.3928 39.8353 9.09271 35.0006 9.09271C21.8373 9.09271 10.8882 18.7621 8.89742 31.3566C6.90667 31.6816 5.38314 33.4083 5.38314 35.5006C5.38314 37.5929 6.90667 39.3196 8.89742 39.6446C10.8882 52.2391 21.8373 61.9084 35.0006 61.9084C40.4244 61.9084 45.6247 60.2833 50.0734 57.1957C51.1906 56.4034 52.247 55.5502 53.222 54.6158C53.7908 54.9002 54.4205 55.0627 55.0909 55.0627C57.4066 55.0627 59.2755 53.1939 59.2755 50.8781C59.2755 49.8015 58.8692 48.8264 58.2192 48.0951C58.7473 47.1404 59.2146 46.145 59.6005 45.109C59.824 44.5199 59.5396 43.8495 58.9505 43.6261C58.3614 43.4026 57.691 43.687 57.4676 44.2761C57.1222 45.1699 56.716 46.0231 56.2691 46.856C55.8831 46.7341 55.4972 46.6731 55.0706 46.6731C53.9127 46.6731 52.8767 47.1404 52.1048 47.892C50.5 47.2419 48.8546 46.6935 47.1685 46.2466C47.6357 44.1136 47.9608 41.8791 48.1436 39.543C49.6062 39.1977 50.7844 38.0601 51.1906 36.6178H59.0927C59.0521 37.532 58.9505 38.4258 58.8083 39.3399C58.7067 39.9696 59.1333 40.5587 59.763 40.64C60.3928 40.7415 60.9819 40.3149 61.0631 39.6852C61.2866 38.2836 61.4084 36.8819 61.4084 35.46C61.4084 33.7739 61.2459 32.1082 60.9412 30.5034C61.6522 30.605 62.3835 30.6659 63.1148 30.6659C64.5571 30.6659 65.9384 30.4628 67.2588 30.0971C67.5432 31.8644 67.7057 33.652 67.7057 35.4803C67.7057 44.2152 64.3133 52.4219 58.1176 58.6176C51.9422 64.793 43.7355 68.2057 34.9803 68.2057C27.0376 68.2057 19.3996 65.3212 13.4274 60.1005C12.9602 59.6942 12.2289 59.7349 11.8226 60.2021C11.4163 60.6693 11.457 61.4006 11.9242 61.8069C18.3027 67.3932 26.4891 70.4809 34.9803 70.4809C44.3246 70.4809 53.1204 66.8447 59.7224 60.2224C66.3244 53.6204 69.9809 44.8246 69.9809 35.4803C69.9809 33.388 69.798 31.316 69.4324 29.3049C73.8201 27.2735 77.111 23.2108 77.9845 18.1526C78.086 17.5432 77.6798 16.9541 77.05 16.8526ZM49.3015 21.7076C48.428 22.0123 47.5342 22.2763 46.6404 22.5201C46.0919 20.5903 45.4215 18.7824 44.6496 17.137C43.6949 15.1462 42.5979 13.5008 41.3994 12.2413C43.7761 12.8914 46.0106 13.9071 48.0217 15.2072C48.0217 15.3493 48.0217 15.4712 48.0217 15.6134C48.0217 17.7667 48.4686 19.8387 49.3015 21.7076ZM11.1726 39.3602C12.3508 38.8727 13.2446 37.8773 13.5899 36.6382H21.6748C21.7357 40.0102 22.1217 43.2604 22.792 46.2669C20.0903 46.9778 17.5104 47.9529 15.0931 49.1311C13.1227 46.2669 11.7617 42.9557 11.1726 39.3602ZM21.6748 34.363H13.5899C13.2446 33.1239 12.3304 32.1285 11.1726 31.641C11.7617 28.0658 13.1227 24.7343 15.0931 21.8701C16.6573 22.642 18.3027 23.3123 19.9887 23.8811C20.0903 25.4047 20.9841 26.7047 22.2842 27.3751C21.9388 29.6096 21.7357 31.9457 21.6748 34.363ZM44.3855 23.0483C41.7244 23.617 38.9618 23.9217 36.1381 24.003V11.51C39.5915 12.3226 42.6182 16.7916 44.3855 23.0483ZM33.8427 11.51V24.003C31.9941 23.9624 30.1456 23.7999 28.358 23.5358C28.3174 22.1341 27.6064 20.9153 26.5298 20.184C28.358 15.4509 30.9581 12.2007 33.8427 11.51ZM27.7892 25.75C29.7799 26.0547 31.791 26.2172 33.8427 26.2781V34.363H23.9702C24.0108 32.0879 24.2343 29.894 24.5593 27.8017C25.9407 27.6798 27.1188 26.8876 27.7892 25.75ZM24.1937 21.7279C25.25 21.7279 26.1032 22.581 26.1032 23.6374C26.1032 24.6937 25.25 25.5468 24.1937 25.5468C23.1374 25.5468 22.2842 24.6937 22.2842 23.6374C22.2842 22.581 23.1374 21.7279 24.1937 21.7279ZM33.8427 36.6382V44.723C30.8363 44.784 27.8705 45.1293 25.0265 45.7387C24.4171 42.9354 24.0312 39.868 23.9499 36.6382H33.8427ZM33.8427 47.0185V59.5114C30.3894 58.6989 27.3626 54.2299 25.5953 47.9732C28.2564 47.4044 31.0191 47.0794 33.8427 47.0185ZM36.1381 59.4911V46.9982C38.9618 47.0591 41.7244 47.3841 44.3855 47.9529C42.6182 54.2095 39.5915 58.6786 36.1381 59.4911ZM36.1381 44.723V36.6382H43.1464C43.5324 37.9789 44.548 39.0352 45.8684 39.4821C45.6856 41.676 45.3809 43.7683 44.9543 45.7387C42.1104 45.1293 39.1446 44.784 36.1381 44.723ZM43.1464 34.363H36.1381V26.2781C39.1446 26.2172 42.1104 25.8719 44.9543 25.2625C45.3809 27.2329 45.7059 29.3252 45.8684 31.5191C44.548 31.9457 43.5324 33.0223 43.1464 34.363ZM28.5814 12.2413C27.3829 13.5211 26.3063 15.1462 25.3516 17.137C25.0062 17.8683 24.6609 18.6402 24.3562 19.4527C24.2952 19.4527 24.2343 19.4527 24.1734 19.4527C22.5889 19.4527 21.2076 20.3465 20.4966 21.6466C19.1152 21.1794 17.7948 20.6309 16.5151 20.0215C19.6231 16.3041 23.8077 13.5414 28.5814 12.2413ZM7.65828 35.5006C7.65828 34.4443 8.51146 33.5911 9.56777 33.5911C10.6241 33.5911 11.4773 34.4443 11.4773 35.5006C11.4773 36.5569 10.6241 37.4101 9.56777 37.4101C8.51146 37.4101 7.65828 36.5569 7.65828 35.5006ZM16.5151 51C18.6683 49.964 20.9638 49.1311 23.3608 48.5014C23.9093 50.4312 24.5796 52.2391 25.3516 53.8845C26.3063 55.8753 27.4032 57.5207 28.5814 58.7801C23.8077 57.4597 19.6231 54.6971 16.5151 51ZM55.0909 48.9686C56.1472 48.9686 57.0004 49.8218 57.0004 50.8781C57.0004 51.9344 56.1472 52.7876 55.0909 52.7876C54.0346 52.7876 53.1814 51.9344 53.1814 50.8781C53.1814 49.8218 54.0346 48.9686 55.0909 48.9686ZM51.0078 49.9233C50.9469 50.228 50.9062 50.5531 50.9062 50.8781C50.9062 51.6906 51.1297 52.4422 51.536 53.072C50.6828 53.8845 49.7484 54.6361 48.7733 55.3268C46.5185 56.9113 44.0199 58.0691 41.3994 58.7801C42.5979 57.5004 43.6949 55.8549 44.6496 53.8642C45.4418 52.2391 46.1122 50.4312 46.6404 48.4811C48.1436 48.8873 49.6062 49.3749 51.0078 49.9233ZM47.1685 37.4101C46.1122 37.4101 45.259 36.5569 45.259 35.5006C45.259 34.4443 46.1122 33.5911 47.1685 33.5911C48.2248 33.5911 49.078 34.4443 49.078 35.5006C49.078 36.5569 48.2248 37.4101 47.1685 37.4101ZM59.0927 34.363H51.1906C50.7844 32.9207 49.6062 31.7832 48.1436 31.4378C47.9608 29.1221 47.6357 26.8672 47.1685 24.7343C48.2655 24.4499 49.3218 24.1046 50.3781 23.7389C52.247 26.6641 55.0909 28.8783 58.463 29.9752C58.8083 31.3972 59.0317 32.8598 59.0927 34.363Z" fill="#11C849"/>
<path d="M71.504 10.2306L63.6629 5.84278C63.3176 5.63965 62.891 5.63965 62.5456 5.84278L54.7248 10.2306C54.3592 10.4337 54.1357 10.8197 54.1357 11.2259V19.9811C54.1357 20.3874 54.3592 20.7734 54.7248 20.9765L62.5456 25.3643C62.7285 25.4659 62.9113 25.5065 63.0941 25.5065C63.2769 25.5065 63.4801 25.4659 63.6426 25.3643L71.4634 20.9765C71.829 20.7734 72.0525 20.3874 72.0525 19.9811V11.2259C72.0728 10.8197 71.8493 10.4337 71.504 10.2306ZM61.9768 22.4188L56.4312 19.3108V13.176L61.9768 16.284V22.4188ZM63.1144 14.2933L57.6297 11.2259L63.1144 8.15855L68.5991 11.2259L63.1144 14.2933ZM69.7976 19.3108L64.252 22.4188V16.284L69.7976 13.176V19.3108Z" fill="#11C849"/>
</svg>
