<svg width="70" height="78" viewBox="0 0 70 78" fill="none" xmlns="http://www.w3.org/2000/svg">
<path d="M34.5205 46.2655C38.5303 46.2655 41.7763 43.0195 41.7763 39.0097C41.7763 34.9999 38.5303 31.7539 34.5205 31.7539C30.5107 31.7539 27.2646 34.9999 27.2646 39.0097C27.2646 43.0004 30.5298 46.2655 34.5205 46.2655ZM34.5205 34.0452C37.2509 34.0452 39.485 36.2792 39.485 39.0097C39.485 41.7402 37.2509 43.9742 34.5205 43.9742C31.79 43.9742 29.556 41.7402 29.556 39.0097C29.556 36.2601 31.79 34.0452 34.5205 34.0452Z" fill="#11C849"/>
<path d="M10.0034 30.4553C10.0034 27.8012 7.84573 25.6436 5.19163 25.6436C2.53753 25.6436 0.379883 27.8012 0.379883 30.4553C0.379883 33.1094 2.53753 35.2671 5.19163 35.2671C7.84573 35.2671 10.0034 33.1094 10.0034 30.4553ZM2.67119 30.4553C2.67119 29.0614 3.79775 27.9349 5.19163 27.9349C6.58551 27.9349 7.71207 29.0614 7.71207 30.4553C7.71207 31.8492 6.58551 32.9757 5.19163 32.9757C3.79775 32.9757 2.67119 31.8301 2.67119 30.4553Z" fill="#11C849"/>
<path d="M55.2952 23.0464C57.9493 23.0464 60.1069 20.8887 60.1069 18.2346C60.1069 15.5805 57.9493 13.4229 55.2952 13.4229C52.6411 13.4229 50.4834 15.5805 50.4834 18.2346C50.4834 20.8887 52.6411 23.0464 55.2952 23.0464ZM55.2952 15.7142C56.689 15.7142 57.8156 16.8407 57.8156 18.2346C57.8156 19.6285 56.689 20.755 55.2952 20.755C53.9013 20.755 52.7747 19.6285 52.7747 18.2346C52.7747 16.8407 53.9013 15.7142 55.2952 15.7142Z" fill="#11C849"/>
<path d="M31.9995 69.5608C31.9995 66.9067 29.8418 64.749 27.1877 64.749C24.5336 64.749 22.376 66.9067 22.376 69.5608C22.376 72.2149 24.5336 74.3725 27.1877 74.3725C29.8418 74.3725 31.9995 72.2149 31.9995 69.5608ZM27.1877 72.0812C25.7938 72.0812 24.6673 70.9547 24.6673 69.5608C24.6673 68.1669 25.7938 67.0403 27.1877 67.0403C28.5816 67.0403 29.7082 68.1669 29.7082 69.5608C29.7082 70.9356 28.5816 72.0812 27.1877 72.0812Z" fill="#11C849"/>
<path d="M44.736 59.8792C44.125 59.7455 43.514 60.1274 43.3613 60.7384C41.2227 69.98 37.843 75.7274 34.5206 75.7274C33.7378 75.7274 32.9358 75.4028 32.1529 74.7536C31.6565 74.3526 30.9309 74.429 30.549 74.9255C30.148 75.4219 30.2244 76.1475 30.7209 76.5294C31.9238 77.5032 33.2222 77.9996 34.5206 77.9996C36.9456 77.9996 39.1987 76.3575 41.1845 73.1115C42.9412 70.2665 44.4496 66.1421 45.5953 61.2158C45.7289 60.643 45.3471 60.0319 44.736 59.8792Z" fill="#11C849"/>
<path d="M68.1833 51.8982C67.2095 49.5687 65.4337 46.9528 62.8942 44.1459C61.3666 42.4465 59.5909 40.728 57.6242 39.0095C60.8511 36.1836 63.5052 33.3958 65.4719 30.7417C68.9089 26.0827 69.9018 22.2066 68.336 19.4952C67.3622 17.7958 65.491 16.7457 62.8178 16.3447C62.1877 16.2492 61.6149 16.6884 61.5194 17.3185C61.4239 17.9486 61.8631 18.5214 62.4932 18.6169C64.4599 18.9033 65.7583 19.5907 66.3693 20.66C67.9924 23.4668 64.7654 29.8443 55.8866 37.5393C53.3853 35.4771 50.6357 33.434 47.6761 31.4673C47.4469 27.9158 47.0651 24.517 46.5113 21.3283C47.2751 21.061 48.0198 20.8127 48.7454 20.5836C49.3564 20.3927 49.681 19.7625 49.5091 19.1515C49.3182 18.5405 48.6881 18.2159 48.0771 18.3878C47.4279 18.5978 46.7596 18.8078 46.0913 19.037C45.5757 16.4783 44.9838 14.0725 44.2773 11.8957C43.1125 8.2869 41.7569 5.44186 40.2102 3.43696C38.4726 1.16475 36.5632 0 34.5392 0C32.1715 0 29.9757 1.56573 28.0281 4.659C26.3096 7.37038 24.8012 11.3038 23.6555 16.0201C23.5028 16.6311 23.8846 17.2612 24.4957 17.3949C25.1067 17.5476 25.7368 17.1657 25.8704 16.5547C28.009 7.75226 31.3314 2.27222 34.5392 2.27222C37.1933 2.27222 40.0002 6.12925 42.0815 12.5831C42.7879 14.7789 43.399 17.2039 43.8954 19.8007C40.8594 20.9273 37.7089 22.3021 34.5201 23.8678C27.9135 20.6027 21.4597 18.2159 15.8842 17.0321C12.1799 16.2301 9.02932 16.001 6.52797 16.3256C3.68293 16.6884 1.73532 17.7577 0.723322 19.5143C-0.0977304 20.9273 -0.212296 22.6649 0.341437 24.6698C0.513286 25.2808 1.1434 25.6245 1.75441 25.4717C2.36543 25.2999 2.70912 24.6698 2.55637 24.0588C2.15539 22.6649 2.21267 21.5192 2.70912 20.66C4.02663 18.3687 8.78109 17.8531 15.4068 19.2661C20.3904 20.3354 26.0805 22.3785 31.9615 25.1662C30.5867 25.8918 29.2119 26.6556 27.8372 27.4384C27.0161 27.9158 26.176 28.4122 25.374 28.9087C24.8394 29.2333 24.6675 29.9398 24.9921 30.4744C25.2021 30.8372 25.584 31.0282 25.9659 31.0282C26.176 31.0282 26.3669 30.9709 26.5578 30.8563C27.3598 30.3789 28.1618 29.8825 28.9828 29.4242C30.835 28.355 32.6871 27.3621 34.5201 26.4264C36.3532 27.3621 38.2053 28.355 40.0575 29.4242C41.9096 30.4935 43.7045 31.601 45.423 32.7275C45.5375 34.7897 45.5948 36.8901 45.5948 39.0286C45.5948 44.0695 45.2702 48.9386 44.6592 53.5403C44.5828 54.1704 45.022 54.7432 45.633 54.8387C45.6903 54.8387 45.7285 54.8578 45.7857 54.8578C46.3586 54.8578 46.8359 54.4377 46.9123 53.8649C47.5424 49.1677 47.867 44.1841 47.867 39.0477C47.867 37.4629 47.8288 35.8972 47.7715 34.3315C50.0056 35.8781 52.1059 37.4438 54.0536 39.0477C52.717 40.1361 51.2658 41.2436 49.7192 42.3892C49.2036 42.752 49.089 43.4776 49.4709 43.9931C49.7001 44.2987 50.0438 44.4705 50.4066 44.4705C50.6357 44.4705 50.8839 44.3941 51.0748 44.2605C52.7551 43.0384 54.3591 41.7973 55.8484 40.5753C57.8533 42.3129 59.6291 44.0504 61.1757 45.7498C65.7201 50.7716 67.6487 55.1442 66.3121 57.4355C64.9946 59.7268 60.2401 60.2424 53.6144 58.8294C48.6308 57.7601 42.9407 55.717 37.0597 52.9293C38.4345 52.2037 39.8092 51.4399 41.184 50.657C41.6423 50.3897 42.1197 50.1224 42.5779 49.836C43.1126 49.5114 43.3035 48.8049 42.9789 48.2703C42.6543 47.7356 41.9478 47.5447 41.4132 47.8693C40.9549 48.1366 40.4966 48.4039 40.0575 48.6712C38.2053 49.7405 36.3532 50.7334 34.5201 51.669C32.6871 50.7334 30.835 49.7405 28.9828 48.6712C27.1307 47.602 25.3358 46.4945 23.6173 45.3679C23.5028 43.3058 23.4455 41.2054 23.4455 39.0668C23.4455 34.0259 23.7701 29.1569 24.3811 24.5552C24.4575 23.9251 24.0183 23.3523 23.4073 23.2568C22.7772 23.1804 22.2043 23.6196 22.1089 24.2306C21.4788 28.9278 21.1542 33.9114 21.1542 39.0477C21.1542 40.6326 21.1924 42.1983 21.2496 43.764C19.0156 42.2174 16.9152 40.6517 14.9676 39.0477C16.3042 37.9594 17.7554 36.8519 19.302 35.7253C19.8176 35.3625 19.9321 34.637 19.5502 34.1214C19.1875 33.6059 18.4619 33.4913 17.9463 33.8732C16.266 35.0952 14.6621 36.3364 13.1728 37.5584C12.3708 36.8519 11.5879 36.1645 10.8433 35.458C10.385 35.0189 9.65943 35.0379 9.22026 35.4962C8.78109 35.9545 8.80019 36.68 9.25845 37.1192C9.94584 37.7684 10.6523 38.4176 11.397 39.0477C8.18917 41.8164 5.53507 44.6233 3.58746 47.2583C0.150495 51.9173 -0.842406 55.7934 0.723322 58.5048C1.73532 60.2615 3.68293 61.3307 6.52797 61.6935C7.25355 61.789 8.01732 61.8272 8.85747 61.8272C10.9006 61.8272 13.2682 61.5408 15.9032 60.9679C18.1373 60.4906 20.5241 59.8223 22.9872 58.9821C23.2163 60.1851 23.4837 61.3498 23.7701 62.4764C23.9037 62.9919 24.362 63.3356 24.8775 63.3356C24.973 63.3356 25.0685 63.3165 25.164 63.2974C25.775 63.1447 26.1569 62.5146 26.0041 61.9036C25.6986 60.7006 25.4313 59.4595 25.1831 58.1802C28.219 57.0536 31.3696 55.6788 34.5583 54.1131C41.1649 57.3782 47.5997 59.7459 53.1943 60.9488C55.8293 61.5217 58.197 61.8081 60.2401 61.8081C61.0611 61.8081 61.844 61.7699 62.5696 61.6744C65.4146 61.3116 67.3622 60.2424 68.3742 58.4857C69.3289 56.7672 69.2908 54.5332 68.1833 51.8982ZM41.2031 27.4193C39.8283 26.6365 38.4536 25.8727 37.0788 25.1471C39.5228 23.9824 41.9478 22.9513 44.2964 22.073C44.6974 24.5552 45.022 27.152 45.232 29.8634C43.9336 29.0424 42.5779 28.2213 41.2031 27.4193ZM15.4068 58.753C8.78109 60.1851 4.02663 59.6504 2.70912 57.3591C1.08611 54.5523 4.31304 48.1748 13.1919 40.4798C15.6932 42.542 18.4619 44.5851 21.4024 46.5518C21.6315 50.0842 22.0134 53.5021 22.5671 56.6908C20.0658 57.5883 17.6599 58.2756 15.4068 58.753ZM24.7439 55.9271C24.3429 53.4448 24.0183 50.8289 23.8083 48.1366C25.1258 48.9576 26.4624 49.7787 27.8372 50.5807C29.2119 51.3826 30.5867 52.1273 31.9615 52.8529C29.5174 54.0176 27.0925 55.0487 24.7439 55.9271Z" fill="#11C849"/>
<path d="M34.5197 38.9329C34.5579 38.9329 34.5961 38.9711 34.5961 39.0093C34.5961 39.6394 35.1116 40.1549 35.7417 40.1549C36.3718 40.1549 36.8874 39.6394 36.8874 39.0093C36.8874 37.7109 35.8181 36.6416 34.5197 36.6416C33.8896 36.6416 33.374 37.1571 33.374 37.7873C33.374 38.4174 33.8896 38.9329 34.5197 38.9329Z" fill="#11C849"/>
</svg>
